<svg width="91" height="32" viewBox="0 0 91 32" fill="none" xmlns="http://www.w3.org/2000/svg">
<g filter="url(#filter0_d_4103_383)">
<path d="M4.672 19V15.52L10.336 6.28H4.888V2.488H15.808V5.992L10.24 15.208H15.928V19H4.672ZM21.8744 19.192C20.8024 19.192 19.9304 19 19.2584 18.616C18.6024 18.232 18.1224 17.712 17.8184 17.056C17.5144 16.4 17.3624 15.664 17.3624 14.848V6.976H22.4264V14.152C22.4264 14.52 22.5304 14.808 22.7384 15.016C22.9624 15.208 23.2264 15.304 23.5304 15.304C23.8504 15.304 24.1784 15.208 24.5144 15.016L24.7784 18.352C24.4264 18.624 23.9704 18.832 23.4104 18.976C22.8504 19.12 22.3384 19.192 21.8744 19.192ZM19.9064 5.656C19.1704 5.656 18.5384 5.424 18.0104 4.96C17.4824 4.48 17.2184 3.896 17.2184 3.208C17.2184 2.728 17.3464 2.312 17.6024 1.96C17.8584 1.592 18.1944 1.304 18.6104 1.096C19.0264 0.887999 19.4584 0.783998 19.9064 0.783998C20.4024 0.783998 20.8504 0.895998 21.2504 1.12C21.6664 1.344 21.9944 1.64 22.2344 2.008C22.4904 2.376 22.6184 2.776 22.6184 3.208C22.6184 3.688 22.4824 4.112 22.2104 4.48C21.9544 4.848 21.6184 5.136 21.2024 5.344C20.8024 5.552 20.3704 5.656 19.9064 5.656ZM26.0125 19V6.976H31.0045V9.592C31.3725 8.696 31.9165 8.008 32.6365 7.528C33.3725 7.048 34.2445 6.808 35.2525 6.808C36.8205 6.808 38.0365 7.352 38.9005 8.44C39.7645 9.512 40.1965 11.032 40.1965 13V19H35.1325V12.736C35.1325 11.312 34.5565 10.6 33.4045 10.6C32.7165 10.6 32.1565 10.856 31.7245 11.368C31.2925 11.864 31.0765 12.536 31.0765 13.384V19H26.0125ZM49.6176 23.68C49.0096 23.68 48.4416 23.64 47.9136 23.56C47.3856 23.48 46.9696 23.384 46.6656 23.272L47.0496 19.792C47.3376 19.856 47.6496 19.904 47.9856 19.936C48.3216 19.984 48.6496 20.008 48.9696 20.008C50.0416 20.008 50.8096 19.784 51.2736 19.336C51.7536 18.888 51.9936 18.2 51.9936 17.272V16.144C51.5456 17.024 50.9936 17.672 50.3376 18.088C49.6816 18.504 48.8576 18.712 47.8656 18.712C46.7296 18.712 45.7056 18.456 44.7936 17.944C43.8816 17.416 43.1616 16.704 42.6336 15.808C42.1216 14.896 41.8656 13.856 41.8656 12.688C41.8656 11.52 42.1216 10.496 42.6336 9.616C43.1616 8.736 43.8816 8.048 44.7936 7.552C45.7056 7.056 46.7296 6.808 47.8656 6.808C48.6656 6.808 49.4336 7.024 50.1696 7.456C50.9056 7.872 51.4656 8.552 51.8496 9.496V6.976H56.8896V16.192C56.8896 18.752 56.2576 20.64 54.9936 21.856C53.7296 23.072 51.9376 23.68 49.6176 23.68ZM49.4256 14.92C50.1136 14.92 50.6896 14.704 51.1536 14.272C51.6176 13.84 51.8496 13.32 51.8496 12.712C51.8496 12.104 51.6176 11.6 51.1536 11.2C50.6896 10.8 50.1136 10.6 49.4256 10.6C48.6896 10.6 48.0816 10.808 47.6016 11.224C47.1376 11.64 46.9056 12.152 46.9056 12.76C46.9056 13.352 47.1376 13.864 47.6016 14.296C48.0816 14.712 48.6896 14.92 49.4256 14.92ZM66.7578 15.832C67.2218 15.832 67.7098 15.784 68.2218 15.688C68.7498 15.592 69.2858 15.416 69.8298 15.16L70.4058 18.256C69.8138 18.56 69.1658 18.792 68.4618 18.952C67.7738 19.112 66.9818 19.192 66.0858 19.192C64.4698 19.192 63.1098 18.928 62.0058 18.4C60.9178 17.872 60.0938 17.144 59.5338 16.216C58.9738 15.288 58.6938 14.216 58.6938 13C58.6938 11.752 58.9898 10.664 59.5818 9.736C60.1898 8.808 60.9978 8.088 62.0058 7.576C63.0138 7.064 64.1258 6.808 65.3418 6.808C67.1498 6.808 68.5338 7.376 69.4938 8.512C70.4538 9.632 70.9338 11.232 70.9338 13.312L63.7818 14.224C64.3098 15.296 65.3018 15.832 66.7578 15.832ZM63.3978 12.016L67.1658 11.224C67.1018 10.712 66.9258 10.336 66.6378 10.096C66.3498 9.84 65.9898 9.712 65.5578 9.712C64.9178 9.712 64.4058 9.936 64.0218 10.384C63.6538 10.816 63.4458 11.36 63.3978 12.016ZM72.6063 19V6.976H77.5983V9.592C77.9663 8.696 78.5103 8.008 79.2303 7.528C79.9663 7.048 80.8383 6.808 81.8463 6.808C83.4143 6.808 84.6303 7.352 85.4943 8.44C86.3583 9.512 86.7903 11.032 86.7903 13V19H81.7263V12.736C81.7263 11.312 81.1503 10.6 79.9983 10.6C79.3103 10.6 78.7503 10.856 78.3183 11.368C77.8863 11.864 77.6703 12.536 77.6703 13.384V19H72.6063Z" fill="#F4F4F5"/>
</g>
<defs>
<filter id="filter0_d_4103_383" x="0.671997" y="0.783997" width="90.1183" height="30.896" filterUnits="userSpaceOnUse" color-interpolation-filters="sRGB">
<feFlood flood-opacity="0" result="BackgroundImageFix"/>
<feColorMatrix in="SourceAlpha" type="matrix" values="0 0 0 0 0 0 0 0 0 0 0 0 0 0 0 0 0 0 127 0" result="hardAlpha"/>
<feOffset dy="4"/>
<feGaussianBlur stdDeviation="2"/>
<feComposite in2="hardAlpha" operator="out"/>
<feColorMatrix type="matrix" values="0 0 0 0 0 0 0 0 0 0 0 0 0 0 0 0 0 0 0.25 0"/>
<feBlend mode="normal" in2="BackgroundImageFix" result="effect1_dropShadow_4103_383"/>
<feBlend mode="normal" in="SourceGraphic" in2="effect1_dropShadow_4103_383" result="shape"/>
</filter>
</defs>
</svg>
